<svg id="svg" version="1.1" xmlns="http://www.w3.org/2000/svg" xmlns:xlink="http://www.w3.org/1999/xlink" width="400" height="399.33444259567386" viewBox="0, 0, 400,399.33444259567386"><g id="svgg"><path id="path0" d="M65.335 53.689 C 59.844 55.750,55.820 59.806,54.379 64.735 C 54.089 65.724,53.694 67.055,53.500 67.692 C 52.851 69.821,53.054 209.001,53.709 211.469 C 55.649 218.778,59.250 222.915,65.486 225.003 C 69.023 226.187,157.999 226.170,161.541 224.985 C 167.167 223.102,171.787 218.144,173.279 212.388 C 173.816 210.318,173.930 68.782,173.397 66.933 C 172.179 62.709,171.096 60.803,168.403 58.142 C 165.273 55.049,165.309 55.072,162.021 53.816 L 159.224 52.747 113.478 52.768 L 67.732 52.789 65.335 53.689 M238.561 53.844 C 237.133 54.426,235.726 55.136,235.436 55.423 C 235.146 55.710,234.758 55.944,234.576 55.944 C 233.080 55.944,227.772 63.702,227.772 65.888 C 227.772 66.485,227.592 67.153,227.371 67.374 C 226.757 67.989,227.055 310.090,227.674 312.575 C 229.002 317.912,233.201 322.575,238.576 324.681 L 241.111 325.674 287.089 325.665 C 331.028 325.655,333.167 325.621,335.313 324.903 C 339.827 323.392,343.057 320.566,345.502 315.989 L 347.053 313.087 347.170 190.410 C 347.281 74.532,347.249 67.599,346.588 65.335 C 344.987 59.847,340.746 55.501,335.096 53.557 C 332.784 52.762,331.932 52.748,286.950 52.767 L 241.159 52.786 238.561 53.844 " stroke="none" fill="#fbfcfb" fill-rule="evenodd"></path><path id="path1" d="M29.670 0.287 C 28.956 0.377,28.372 0.602,28.372 0.787 C 28.372 0.972,27.473 1.247,26.374 1.399 C 25.275 1.550,24.376 1.794,24.376 1.941 C 24.376 2.235,21.415 3.596,20.776 3.596 C 20.558 3.596,20.380 3.776,20.380 3.996 C 20.380 4.216,20.020 4.396,19.580 4.396 C 19.141 4.396,18.781 4.556,18.781 4.752 C 18.781 4.948,18.344 5.218,17.809 5.352 C 17.274 5.486,16.722 5.955,16.583 6.395 C 16.444 6.834,16.085 7.193,15.786 7.193 C 15.030 7.193,7.770 14.395,7.423 15.490 C 7.267 15.981,6.971 16.384,6.766 16.384 C 6.561 16.384,6.394 16.571,6.394 16.800 C 6.394 17.029,6.027 17.610,5.579 18.091 C 5.131 18.572,4.654 19.418,4.518 19.972 C 4.383 20.526,4.165 21.069,4.034 21.179 C 3.462 21.659,2.398 23.972,2.398 24.737 C 2.398 25.198,2.227 25.574,2.018 25.574 C 1.809 25.574,1.516 26.653,1.367 27.972 C 1.218 29.291,0.939 30.370,0.748 30.370 C 0.551 30.370,0.400 103.867,0.400 199.800 C 0.400 295.734,0.551 369.231,0.748 369.231 C 0.939 369.231,1.218 370.310,1.367 371.628 C 1.516 372.947,1.809 374.026,2.018 374.026 C 2.227 374.026,2.398 374.403,2.398 374.863 C 2.398 375.628,3.462 377.941,4.034 378.422 C 4.165 378.531,4.383 379.075,4.518 379.628 C 4.654 380.182,5.131 381.029,5.579 381.510 C 6.027 381.991,6.394 382.572,6.394 382.800 C 6.394 383.029,6.561 383.217,6.766 383.217 C 6.971 383.217,7.267 383.619,7.423 384.111 C 7.766 385.192,15.026 392.408,15.771 392.408 C 16.061 392.408,16.403 392.680,16.530 393.013 C 16.658 393.346,17.217 393.791,17.772 394.002 C 18.327 394.213,18.781 394.570,18.781 394.795 C 18.781 395.021,19.141 395.205,19.580 395.205 C 20.020 395.205,20.380 395.385,20.380 395.604 C 20.380 395.824,20.577 396.004,20.819 396.004 C 21.359 396.004,24.101 397.259,24.376 397.633 C 24.486 397.782,25.385 398.038,26.374 398.202 C 27.363 398.366,28.300 398.702,28.457 398.950 C 28.872 399.606,371.936 399.596,372.342 398.940 C 372.499 398.687,373.482 398.352,374.525 398.196 C 375.569 398.039,376.424 397.752,376.424 397.557 C 376.424 397.362,376.693 397.203,377.023 397.203 C 377.353 397.203,377.622 397.043,377.622 396.848 C 377.622 396.652,378.252 396.374,379.021 396.230 C 379.790 396.086,380.420 395.796,380.420 395.586 C 380.420 395.376,380.689 395.205,381.019 395.205 C 381.349 395.205,381.618 395.037,381.618 394.832 C 381.618 394.627,382.023 394.332,382.517 394.176 C 383.012 394.019,383.707 393.558,384.063 393.150 C 384.418 392.742,384.900 392.408,385.134 392.408 C 385.776 392.408,393.092 385.007,393.396 384.051 C 393.541 383.592,393.828 383.217,394.033 383.217 C 394.238 383.217,394.406 382.947,394.406 382.617 C 394.406 382.288,394.582 382.018,394.798 382.018 C 395.013 382.018,395.302 381.568,395.440 381.019 C 395.578 380.470,395.851 380.020,396.047 380.020 C 396.243 380.020,396.404 379.660,396.404 379.221 C 396.404 378.781,396.569 378.422,396.771 378.422 C 396.974 378.422,397.258 377.882,397.403 377.223 C 397.547 376.563,397.831 376.024,398.034 376.024 C 398.236 376.024,398.402 375.574,398.402 375.025 C 398.402 374.476,398.560 374.026,398.753 374.026 C 399.946 374.026,400.000 366.551,400.000 199.800 C 400.000 33.049,399.946 25.574,398.753 25.574 C 398.560 25.574,398.402 25.125,398.402 24.575 C 398.402 24.026,398.236 23.576,398.034 23.576 C 397.831 23.576,397.547 23.037,397.403 22.378 C 397.258 21.718,396.974 21.179,396.771 21.179 C 396.569 21.179,396.404 20.819,396.404 20.380 C 396.404 19.940,396.243 19.580,396.047 19.580 C 395.851 19.580,395.574 19.115,395.432 18.547 C 395.289 17.979,394.730 17.071,394.190 16.531 C 393.649 15.990,393.207 15.378,393.207 15.170 C 393.207 14.617,385.645 7.193,385.082 7.193 C 384.820 7.193,384.268 6.743,383.855 6.194 C 383.442 5.644,382.770 5.195,382.362 5.195 C 381.953 5.195,381.618 5.015,381.618 4.795 C 381.618 4.575,381.349 4.396,381.019 4.396 C 380.689 4.396,380.420 4.224,380.420 4.014 C 380.420 3.804,379.790 3.515,379.021 3.370 C 378.252 3.226,377.622 2.948,377.622 2.753 C 377.622 2.557,377.353 2.398,377.023 2.398 C 376.693 2.398,376.424 2.238,376.424 2.043 C 376.424 1.849,375.569 1.561,374.525 1.405 C 373.482 1.248,372.499 0.913,372.342 0.660 C 372.070 0.220,33.148 -0.148,29.670 0.287 M160.512 52.705 C 165.979 54.368,170.056 57.821,172.643 62.977 L 174.026 65.734 174.026 139.261 L 174.026 212.787 172.789 215.385 C 170.288 220.637,166.634 223.918,161.204 225.786 C 157.617 227.020,69.345 227.016,65.756 225.782 C 59.925 223.776,55.766 219.690,53.640 213.881 C 52.497 210.758,52.577 67.486,53.723 64.535 C 55.964 58.769,60.085 54.829,65.924 52.872 L 68.531 51.999 113.287 51.976 C 155.984 51.955,158.156 51.989,160.512 52.705 M334.812 52.903 C 340.195 54.666,343.803 57.853,346.376 63.114 L 347.852 66.134 347.852 189.011 C 347.852 309.569,347.838 311.926,347.079 313.886 C 344.801 319.769,340.693 323.768,334.951 325.690 C 332.756 326.424,330.896 326.454,287.121 326.464 L 241.575 326.474 238.857 325.435 C 232.229 322.902,228.840 318.830,226.586 310.689 C 225.974 308.481,226.216 68.887,226.833 66.456 C 228.024 61.755,232.523 56.022,236.563 54.056 C 240.947 51.923,238.930 52.006,287.127 51.976 L 331.896 51.948 334.812 52.903 " stroke="none" fill="#63fb64" fill-rule="evenodd"></path><path id="path2" d="M90.809 52.248 C 103.282 52.306,123.691 52.306,136.164 52.248 C 148.636 52.189,138.432 52.141,113.487 52.141 C 88.541 52.141,78.337 52.189,90.809 52.248 M264.635 52.248 C 277.108 52.306,297.517 52.306,309.990 52.248 C 322.463 52.189,312.258 52.141,287.313 52.141 C 262.368 52.141,252.163 52.189,264.635 52.248 M165.834 55.214 C 165.944 55.312,167.113 56.364,168.432 57.553 L 170.829 59.715 169.031 57.799 C 168.042 56.745,166.873 55.692,166.434 55.460 C 165.994 55.227,165.724 55.117,165.834 55.214 M231.953 57.642 L 229.970 59.740 232.068 57.757 C 234.017 55.915,234.349 55.544,234.051 55.544 C 233.988 55.544,233.044 56.489,231.953 57.642 M58.320 57.443 L 56.943 58.941 58.442 57.564 C 59.836 56.282,60.124 55.944,59.819 55.944 C 59.752 55.944,59.078 56.618,58.320 57.443 M341.259 56.469 C 341.259 56.537,341.843 57.122,342.557 57.767 L 343.856 58.941 342.682 57.642 C 341.588 56.432,341.259 56.160,341.259 56.469 M172.042 62.361 C 172.186 62.594,172.640 63.717,173.051 64.858 C 173.461 65.999,173.804 66.633,173.812 66.267 C 173.829 65.479,172.362 61.938,172.019 61.938 C 171.888 61.938,171.899 62.128,172.042 62.361 M227.222 64.951 C 227.085 65.308,226.991 65.990,227.014 66.466 C 227.040 67.014,227.176 66.819,227.383 65.937 C 227.732 64.452,227.637 63.869,227.222 64.951 M53.396 65.350 C 53.259 65.707,53.162 66.299,53.181 66.666 C 53.200 67.033,53.374 66.802,53.568 66.154 C 53.944 64.893,53.811 64.269,53.396 65.350 M173.927 68.531 C 173.931 69.411,174.013 69.723,174.109 69.226 C 174.204 68.729,174.201 68.010,174.101 67.628 C 174.001 67.246,173.923 67.652,173.927 68.531 M226.416 68.165 C 226.066 69.077,226.129 309.800,226.480 310.351 C 226.641 310.605,226.773 256.075,226.773 189.173 C 226.773 122.271,226.748 67.532,226.716 67.532 C 226.685 67.532,226.550 67.817,226.416 68.165 M347.850 189.211 C 347.850 256.244,347.896 283.607,347.952 250.018 C 348.008 216.428,348.008 161.583,347.952 128.139 C 347.896 94.696,347.850 122.178,347.850 189.211 M52.943 139.261 C 52.943 178.601,52.990 194.636,53.047 174.893 C 53.104 155.151,53.104 122.963,53.047 103.365 C 52.990 83.767,52.943 99.920,52.943 139.261 M173.927 209.990 C 173.931 210.869,174.013 211.182,174.109 210.685 C 174.204 210.188,174.201 209.468,174.101 209.086 C 174.001 208.704,173.923 209.111,173.927 209.990 M173.473 212.255 C 173.447 212.622,173.323 213.251,173.197 213.654 C 172.979 214.347,172.990 214.348,173.423 213.674 C 173.674 213.282,173.799 212.653,173.700 212.275 C 173.537 211.656,173.515 211.654,173.473 212.255 M53.978 214.609 C 53.960 214.952,54.226 215.581,54.567 216.008 C 55.179 216.771,55.183 216.770,54.821 215.984 C 54.619 215.544,54.354 214.915,54.231 214.585 C 54.039 214.068,54.005 214.071,53.978 214.609 M172.293 215.602 C 171.623 217.071,171.751 217.384,172.475 216.049 C 172.813 215.425,173.015 214.840,172.923 214.748 C 172.832 214.657,172.548 215.041,172.293 215.602 M168.461 221.076 C 167.087 222.501,166.614 223.160,167.335 222.647 C 168.368 221.911,171.394 218.537,170.963 218.601 C 170.889 218.612,169.764 219.726,168.461 221.076 M90.410 226.473 C 103.102 226.532,123.871 226.532,136.563 226.473 C 149.256 226.415,138.871 226.367,113.487 226.367 C 88.102 226.367,77.717 226.415,90.410 226.473 M226.979 312.121 C 226.983 312.652,227.162 313.357,227.378 313.686 C 227.655 314.108,227.695 313.871,227.514 312.887 C 227.198 311.164,226.971 310.839,226.979 312.121 M347.299 311.756 C 347.274 312.122,347.149 312.752,347.023 313.154 C 346.805 313.848,346.817 313.849,347.249 313.174 C 347.501 312.783,347.625 312.153,347.526 311.776 C 347.363 311.157,347.341 311.155,347.299 311.756 M344.079 318.781 C 343.347 319.825,343.088 320.377,343.502 320.007 C 344.226 319.360,345.854 316.883,345.554 316.883 C 345.474 316.883,344.810 317.737,344.079 318.781 M229.285 317.882 C 229.512 318.322,230.208 319.130,230.832 319.679 L 231.968 320.676 230.772 319.279 C 228.878 317.065,228.852 317.041,229.285 317.882 M340.784 322.190 C 340.192 322.678,339.293 323.393,338.786 323.780 C 338.131 324.278,338.282 324.247,339.304 323.674 C 340.098 323.229,341.070 322.508,341.464 322.072 C 342.402 321.036,342.125 321.084,340.784 322.190 M240.106 325.852 C 241.551 326.520,332.492 326.827,333.528 326.168 C 333.782 326.006,313.013 325.873,287.374 325.871 C 261.736 325.869,240.310 325.725,239.760 325.549 C 239.211 325.374,239.366 325.510,240.106 325.852 " stroke="none" fill="#a3faab" fill-rule="evenodd"></path><path id="path3" d="M174.022 139.261 C 174.022 177.502,174.068 193.088,174.126 173.894 C 174.183 154.701,174.183 123.413,174.126 104.364 C 174.068 85.315,174.022 101.019,174.022 139.261 " stroke="none" fill="#a9fcb4" fill-rule="evenodd"></path><path id="path4" d="M90.809 52.647 C 103.282 52.706,123.691 52.706,136.164 52.647 C 148.636 52.589,138.432 52.541,113.487 52.541 C 88.541 52.541,78.337 52.589,90.809 52.647 M264.635 52.647 C 277.108 52.706,297.517 52.706,309.990 52.647 C 322.463 52.589,312.258 52.541,287.313 52.541 C 262.368 52.541,252.163 52.589,264.635 52.647 M339.205 55.521 C 339.724 55.973,340.338 56.344,340.570 56.344 C 341.062 56.344,341.038 56.324,339.461 55.400 L 338.262 54.698 339.205 55.521 M58.342 57.742 C 57.371 58.731,56.667 59.540,56.777 59.540 C 56.887 59.540,57.771 58.731,58.741 57.742 C 59.712 56.753,60.416 55.944,60.306 55.944 C 60.196 55.944,59.312 56.753,58.342 57.742 M168.215 57.642 C 169.195 58.686,170.049 59.540,170.113 59.540 C 170.413 59.540,170.096 59.182,168.332 57.526 L 166.434 55.744 168.215 57.642 M342.458 58.142 C 343.203 58.911,343.903 59.540,344.013 59.540 C 344.123 59.540,343.603 58.911,342.857 58.142 C 342.112 57.373,341.412 56.743,341.302 56.743 C 341.192 56.743,341.712 57.373,342.458 58.142 M231.347 58.641 L 229.970 60.140 231.469 58.763 C 232.863 57.481,233.151 57.143,232.846 57.143 C 232.779 57.143,232.105 57.817,231.347 58.641 M227.325 66.246 C 227.193 67.040,227.252 67.413,227.474 67.192 C 227.675 66.990,227.773 66.400,227.691 65.880 C 227.565 65.080,227.509 65.137,227.325 66.246 M347.450 189.211 C 347.450 256.464,347.496 283.917,347.552 250.217 C 347.609 216.518,347.609 161.493,347.552 127.940 C 347.496 94.386,347.450 121.958,347.450 189.211 M226.771 189.211 C 226.771 255.145,226.817 282.058,226.873 249.019 C 226.929 215.979,226.929 162.033,226.873 129.139 C 226.817 96.244,226.771 123.277,226.771 189.211 M173.276 211.604 C 173.139 211.961,173.042 212.553,173.061 212.920 C 173.080 213.286,173.254 213.056,173.448 212.408 C 173.824 211.146,173.691 210.522,173.276 211.604 M58.142 220.836 C 60.176 222.642,60.926 223.168,60.141 222.241 C 59.706 221.726,58.988 221.119,58.546 220.893 C 58.104 220.667,57.922 220.641,58.142 220.836 M167.433 221.827 C 166.040 223.048,166.039 223.049,167.321 222.197 C 168.028 221.727,168.713 221.170,168.843 220.960 C 169.228 220.337,168.908 220.533,167.433 221.827 M61.938 223.741 C 62.488 224.190,63.117 224.559,63.337 224.560 C 63.764 224.563,63.042 224.010,61.738 223.336 C 61.207 223.062,61.275 223.198,61.938 223.741 M164.436 223.776 C 163.776 224.213,163.417 224.567,163.636 224.564 C 164.037 224.558,166.210 223.000,165.834 222.989 C 165.724 222.985,165.095 223.340,164.436 223.776 M64.336 224.916 C 64.665 225.109,65.475 225.383,66.134 225.526 C 66.901 225.692,67.117 225.659,66.733 225.434 C 66.404 225.241,65.594 224.966,64.935 224.824 C 64.168 224.658,63.952 224.691,64.336 224.916 M161.095 225.034 C 160.357 225.246,159.827 225.495,159.919 225.586 C 160.121 225.788,163.037 225.012,163.037 224.756 C 163.037 224.521,162.720 224.566,161.095 225.034 M90.410 226.074 C 103.102 226.132,123.871 226.132,136.563 226.074 C 149.256 226.015,138.871 225.967,113.487 225.967 C 88.102 225.967,77.717 226.015,90.410 226.074 M227.231 311.688 C 227.547 313.412,227.774 313.737,227.766 312.454 C 227.763 311.923,227.583 311.219,227.367 310.889 C 227.091 310.467,227.050 310.704,227.231 311.688 M230.766 319.282 C 232.661 321.496,232.687 321.521,232.253 320.679 C 232.027 320.240,231.331 319.431,230.706 318.883 L 229.570 317.885 230.766 319.282 M341.381 321.508 L 340.260 322.536 341.558 321.632 C 342.273 321.135,342.857 320.673,342.857 320.604 C 342.857 320.289,342.415 320.559,341.381 321.508 M233.565 322.015 C 234.000 322.530,234.718 323.136,235.160 323.363 C 236.009 323.797,235.885 323.663,233.969 322.072 C 232.815 321.114,232.801 321.112,233.565 322.015 M264.236 325.974 C 276.928 326.033,297.697 326.033,310.390 325.974 C 323.082 325.915,312.697 325.868,287.313 325.868 C 261.928 325.868,251.543 325.915,264.236 325.974 " stroke="none" fill="#b4fcb4" fill-rule="evenodd"></path></g></svg>